Coordinates
version=1
nRows=32
nColumns=12
inDegrees=yes

Units are S.I. units (second, meters, Newtons, ...)
Angles are in degrees

endheader
time	SC_y	SC_z	SC_x	AC_y	AC_z	AC_x	GH_y	GH_z	GH_yy	EL_x	PS_y
       0.0              -24.67           1.04           61.2          60.37         -9.518          -14.6         -127.8          42.77          147.3          107.3          113.7
   0.04121              -24.67          1.039           61.2          60.37         -9.519          -14.6         -127.8          42.77          147.3          107.3          113.7
   0.08243              -24.67          1.039           61.2          60.37          -9.52         -14.59         -127.7          42.76          147.3          107.3          113.7
    0.1236              -24.67          1.038          61.19          60.36         -9.521         -14.59         -127.7          42.75          147.2          107.3          113.7
    0.1649              -24.67          1.037          61.19          60.36         -9.522         -14.59         -127.7          42.74          147.2          107.3          113.7
    0.2061              -24.67          1.036          61.18          60.36         -9.524         -14.58         -127.7          42.74          147.1          107.3          113.7
    0.2473              -24.67          1.035          61.18          60.36         -9.525         -14.58         -127.7          42.73          147.1          107.3          113.7
    0.2885              -24.67          1.034          61.17          60.35         -9.527         -14.58         -127.6          42.72          147.0          107.3          113.7
    0.3297              -24.67          1.033          61.17          60.35         -9.528         -14.57         -127.6          42.71          147.0          107.3          113.7
    0.3709              -24.67          1.031          61.16          60.35          -9.53         -14.57         -127.6           42.7          146.9          107.3          113.7
    0.4121              -24.67           1.03          61.16          60.34         -9.532         -14.56         -127.5          42.69          146.9          107.3          113.7
    0.4533              -24.67          1.029          61.15          60.34         -9.534         -14.56         -127.5          42.68          146.8          107.3          113.7
    0.4946              -24.68          1.027          61.14          60.33         -9.536         -14.55         -127.5          42.66          146.7          107.3          113.7
    0.5358              -24.68          1.025          61.14          60.33         -9.538         -14.55         -127.4          42.65          146.7          107.3          113.7
     0.577              -24.68          1.024          61.13          60.32         -9.541         -14.54         -127.4          42.63          146.6          107.3          113.7
    0.6182              -24.68          1.022          61.12          60.32         -9.544         -14.53         -127.4          42.62          146.5          107.3          113.7
    0.6594              -24.68           1.02          61.11          60.31         -9.547         -14.53         -127.3           42.6          146.4          107.3          113.7
    0.7006              -24.68          1.017           61.1           60.3          -9.55         -14.52         -127.3          42.58          146.3          107.3          113.7
    0.7418              -24.68          1.015          61.09           60.3         -9.554         -14.51         -127.2          42.56          146.2          107.3          113.7
     0.783              -24.68          1.012          61.08          60.29         -9.558          -14.5         -127.1          42.54          146.0          107.3          113.7
    0.8243              -24.68          1.009          61.06          60.28         -9.562         -14.49         -127.1          42.51          145.9          107.3          113.7
    0.8655              -24.68          1.006          61.05          60.27         -9.567         -14.48         -127.0          42.48          145.8          107.3          113.7
    0.9067              -24.69          1.002          61.03          60.26         -9.572         -14.46         -126.9          42.45          145.6          107.3          113.8
    0.9479              -24.69         0.9977          61.01          60.24         -9.578         -14.45         -126.8          42.42          145.4          107.4          113.8
    0.9891              -24.69         0.9931          60.99          60.23         -9.584         -14.43         -126.7          42.38          145.2          107.4          113.8
      1.03              -24.69          0.988          60.97          60.22         -9.591         -14.41         -126.6          42.34          145.0          107.4          113.8
     1.072              -24.69         0.9823          60.95           60.2         -9.599         -14.39         -126.5          42.29          144.7          107.4          113.8
     1.113               -24.7         0.9759          60.92          60.18         -9.608         -14.37         -126.3          42.24          144.4          107.4          113.8
     1.154               -24.7         0.9687          60.89          60.16         -9.618         -14.35         -126.2          42.18          144.1          107.4          113.8
     1.195               -24.7         0.9604          60.85          60.13          -9.63         -14.32         -126.0          42.11          143.7          107.4          113.8
     1.236              -24.71          0.951          60.81           60.1         -9.643         -14.28         -125.8          42.03          143.3          107.4          113.8
     1.278              -24.71         0.9402          60.76          60.07         -9.658         -14.25         -125.5          41.94          142.8          107.5          113.9
